<svg width="241" height="68" viewBox="0 0 241 68" fill="none" xmlns="http://www.w3.org/2000/svg">
<path d="M239.625 59.7875C239.625 63.3293 236.57 66.1983 232.791 66.1983H9.14187C5.36474 66.1983 2.29883 63.3293 2.29883 59.7875V8.66332C2.29883 5.12315 5.36474 2.24414 9.14187 2.24414H232.789C236.57 2.24414 239.623 5.12315 239.623 8.66332L239.625 59.7875Z" fill="black"/>
<path d="M232.069 2.3213C236.185 2.3213 239.533 5.45125 239.533 9.29775V59.1444C239.533 62.9909 236.185 66.1208 232.069 66.1208H9.85347C5.73804 66.1208 2.38925 62.9909 2.38925 59.1444V9.29775C2.38925 5.45125 5.73804 2.3213 9.85347 2.3213H232.069ZM232.069 0.989982H9.85347C4.96695 0.989982 0.964844 4.73055 0.964844 9.29775V59.1444C0.964844 63.7116 4.96695 67.4521 9.85347 67.4521H232.069C236.956 67.4521 240.958 63.7116 240.958 59.1444V9.29775C240.958 4.73055 236.956 0.989982 232.069 0.989982Z" fill="#A6A6A6"/>
<path d="M54.5239 33.8621C54.4724 28.5069 59.2153 25.9016 59.4322 25.7803C56.7461 22.1199 52.5826 21.6198 51.1196 21.5799C47.6228 21.236 44.2309 23.5356 42.4496 23.5356C40.6328 23.5356 37.8897 21.6132 34.9334 21.6696C31.129 21.7245 27.57 23.7831 25.6181 26.98C21.5898 33.4982 24.5941 43.0771 28.4536 48.3459C30.3842 50.9263 32.6401 53.8074 35.5929 53.7061C38.4817 53.5947 39.5608 51.9847 43.0469 51.9847C46.501 51.9847 47.5143 53.7061 50.5258 53.6413C53.6262 53.5947 55.5781 51.0492 57.4412 48.4456C59.6722 45.488 60.5682 42.5753 60.6037 42.4258C60.5308 42.4025 54.5826 40.2807 54.5239 33.8621Z" fill="white"/>
<path d="M48.8352 18.1139C50.3889 16.2978 51.452 13.8271 51.1569 11.3198C48.9081 11.4129 46.0957 12.7737 44.4762 14.5499C43.0434 16.1151 41.7634 18.6805 42.094 21.0931C44.6202 21.2692 47.2139 19.9018 48.8352 18.1139Z" fill="white"/>
<path d="M96.3321 53.3356H92.2949L90.0834 46.8406H82.3965L80.2899 53.3356H76.3594L83.9752 31.2236H88.679L96.3321 53.3356ZM89.4168 44.1156L87.4168 38.3417C87.2053 37.7519 86.8088 36.3628 86.224 34.1762H86.1529C85.92 35.1167 85.5449 36.5057 85.0293 38.3417L83.065 44.1156H89.4168Z" fill="white"/>
<path d="M115.917 45.1679C115.917 47.8795 115.133 50.0229 113.565 51.5964C112.161 52.9971 110.417 53.6966 108.335 53.6966C106.088 53.6966 104.474 52.9423 103.491 51.4336H103.42V59.8327H99.6297V42.6406C99.6297 40.9359 99.5817 39.1863 99.4893 37.3918H102.822L103.034 39.919H103.105C104.369 38.0149 106.287 37.0645 108.861 37.0645C110.874 37.0645 112.554 37.8072 113.898 39.2943C115.245 40.783 115.917 42.7403 115.917 45.1679ZM112.056 45.2975C112.056 43.7456 111.683 42.4662 110.932 41.4593C110.113 40.4092 109.013 39.8841 107.633 39.8841C106.698 39.8841 105.848 40.1765 105.089 40.7531C104.328 41.3346 103.83 42.094 103.598 43.0344C103.48 43.4731 103.422 43.832 103.422 44.1144V46.7729C103.422 47.9327 103.802 48.9113 104.563 49.7105C105.324 50.5098 106.312 50.9085 107.528 50.9085C108.956 50.9085 110.067 50.3934 110.861 49.3666C111.658 48.3381 112.056 46.9823 112.056 45.2975Z" fill="white"/>
<path d="M135.538 45.1679C135.538 47.8795 134.754 50.0229 133.184 51.5964C131.781 52.9971 130.037 53.6966 127.956 53.6966C125.708 53.6966 124.094 52.9423 123.113 51.4336H123.042V59.8327H119.252V42.6406C119.252 40.9359 119.204 39.1863 119.111 37.3918H122.445L122.656 39.919H122.727C123.989 38.0149 125.908 37.0645 128.484 37.0645C130.494 37.0645 132.174 37.8072 133.522 39.2943C134.864 40.783 135.538 42.7403 135.538 45.1679ZM131.676 45.2975C131.676 43.7456 131.301 42.4662 130.551 41.4593C129.731 40.4092 128.635 39.8841 127.253 39.8841C126.316 39.8841 125.468 40.1765 124.708 40.7531C123.947 41.3346 123.451 42.094 123.218 43.0344C123.102 43.4731 123.042 43.832 123.042 44.1144V46.7729C123.042 47.9327 123.422 48.9113 124.18 49.7105C124.94 50.5081 125.929 50.9085 127.148 50.9085C128.576 50.9085 129.687 50.3934 130.482 49.3666C131.278 48.3381 131.676 46.9823 131.676 45.2975Z" fill="white"/>
<path d="M157.475 47.1345C157.475 49.0153 156.776 50.5456 155.373 51.727C153.832 53.018 151.686 53.6627 148.929 53.6627C146.384 53.6627 144.343 53.2041 142.798 52.2853L143.676 49.3327C145.34 50.2731 147.166 50.745 149.155 50.745C150.583 50.745 151.694 50.4426 152.492 49.8411C153.286 49.2397 153.683 48.4321 153.683 47.4252C153.683 46.528 153.356 45.772 152.7 45.1589C152.047 44.5458 150.958 43.9758 149.436 43.4491C145.294 42.0052 143.225 39.8901 143.225 37.1086C143.225 35.2909 143.95 33.8005 145.402 32.6407C146.849 31.4793 148.78 30.8994 151.194 30.8994C153.347 30.8994 155.135 31.25 156.563 31.9495L155.615 34.8373C154.282 34.1594 152.774 33.8204 151.087 33.8204C149.754 33.8204 148.712 34.1278 147.966 34.7393C147.335 35.2859 147.018 35.9522 147.018 36.7414C147.018 37.6154 147.379 38.3382 148.104 38.9064C148.735 39.4315 149.882 39.9997 151.546 40.6129C153.582 41.3788 155.077 42.2744 156.038 43.3013C156.997 44.3248 157.475 45.6058 157.475 47.1345Z" fill="white"/>
<path d="M170.006 40.0497H165.829V47.7909C165.829 49.7598 166.565 50.7435 168.04 50.7435C168.717 50.7435 169.279 50.6887 169.724 50.579L169.828 53.269C169.082 53.5299 168.099 53.6612 166.881 53.6612C165.384 53.6612 164.214 53.2342 163.37 52.3818C162.529 51.5277 162.106 50.0955 162.106 48.0833V40.0464H159.617V37.3879H162.106V34.4686L165.829 33.4185V37.3879H170.006V40.0497Z" fill="white"/>
<path d="M188.855 45.232C188.855 47.6828 188.105 49.6949 186.608 51.2684C185.039 52.8884 182.955 53.6959 180.358 53.6959C177.855 53.6959 175.862 52.92 174.376 51.3681C172.89 49.8162 172.146 47.8572 172.146 45.4962C172.146 43.0254 172.911 41.0017 174.445 39.4282C175.976 37.853 178.041 37.0654 180.639 37.0654C183.142 37.0654 185.156 37.8414 186.676 39.3949C188.13 40.902 188.855 42.8476 188.855 45.232ZM184.923 45.3466C184.923 43.8761 184.587 42.615 183.906 41.5633C183.111 40.2905 181.976 39.6558 180.504 39.6558C178.98 39.6558 177.823 40.2922 177.028 41.5633C176.347 42.6167 176.011 43.8977 176.011 45.4131C176.011 46.8836 176.347 48.1447 177.028 49.1948C177.848 50.4675 178.993 51.1022 180.47 51.1022C181.917 51.1022 183.053 50.4542 183.872 49.1615C184.571 48.0898 184.923 46.8154 184.923 45.3466Z" fill="white"/>
<path d="M201.176 40.5072C200.801 40.4424 200.401 40.4092 199.981 40.4092C198.648 40.4092 197.617 40.8794 196.891 41.8215C196.26 42.6523 195.944 43.7024 195.944 44.9701V53.3361H192.155L192.191 42.413C192.191 40.5753 192.143 38.9021 192.049 37.3934H195.35L195.489 40.4441H195.594C195.994 39.3956 196.625 38.5515 197.489 37.9185C198.333 37.3486 199.245 37.0645 200.228 37.0645C200.578 37.0645 200.895 37.0877 201.176 37.1293V40.5072Z" fill="white"/>
<path d="M218.125 44.6092C218.125 45.2439 218.081 45.7789 217.987 46.2159H206.616C206.661 47.7911 207.21 48.9957 208.266 49.8265C209.224 50.5692 210.463 50.9414 211.985 50.9414C213.669 50.9414 215.204 50.6905 216.586 50.187L217.18 52.6461C215.565 53.3041 213.66 53.6314 211.461 53.6314C208.815 53.6314 206.739 52.9037 205.228 51.4498C203.72 49.996 202.965 48.0436 202.965 45.5945C202.965 43.1902 203.667 41.1881 205.073 39.5913C206.545 37.8866 208.534 37.0342 211.037 37.0342C213.496 37.0342 215.357 37.8866 216.621 39.5913C217.622 40.9455 218.125 42.6203 218.125 44.6092ZM214.511 43.6904C214.536 42.6403 214.289 41.7331 213.775 40.9671C213.119 39.9818 212.111 39.49 210.755 39.49C209.516 39.49 208.508 39.9701 207.738 40.9338C207.107 41.6998 206.732 42.6187 206.616 43.6887H214.511V43.6904Z" fill="white"/>
<path d="M88.1629 17.6202C88.1629 19.5759 87.5353 21.048 86.282 22.0367C85.1212 22.9488 83.4715 23.4058 81.3346 23.4058C80.2751 23.4058 79.3685 23.3626 78.6094 23.2762V12.5907C79.5996 12.4412 80.6662 12.3647 81.8182 12.3647C83.8537 12.3647 85.3879 12.7785 86.4225 13.6059C87.5816 14.5414 88.1629 15.8789 88.1629 17.6202ZM86.1985 17.6684C86.1985 16.4007 85.8394 15.4287 85.1212 14.7507C84.403 14.0745 83.3541 13.7355 81.9728 13.7355C81.3862 13.7355 80.8866 13.7721 80.4724 13.8485V21.9719C80.7018 22.0051 81.1213 22.02 81.7311 22.02C83.1568 22.02 84.2572 21.6495 85.0323 20.9085C85.8074 20.1674 86.1985 19.0874 86.1985 17.6684Z" fill="white"/>
<path d="M98.5789 19.3284C98.5789 20.533 98.2109 21.52 97.4749 22.2942C96.7034 23.0901 95.6812 23.4872 94.4048 23.4872C93.1746 23.4872 92.195 23.1067 91.4644 22.3424C90.7355 21.5798 90.3711 20.6177 90.3711 19.458C90.3711 18.245 90.7462 17.2498 91.4999 16.4771C92.2537 15.7045 93.267 15.3174 94.5434 15.3174C95.7736 15.3174 96.762 15.6979 97.5104 16.4605C98.2215 17.2016 98.5789 18.1586 98.5789 19.3284ZM96.6465 19.3849C96.6465 18.6621 96.4794 18.0423 96.1469 17.5256C95.7558 16.9008 95.1994 16.5885 94.4759 16.5885C93.7274 16.5885 93.1586 16.9008 92.7675 17.5256C92.4333 18.0423 92.2679 18.6721 92.2679 19.4164C92.2679 20.1392 92.435 20.759 92.7675 21.2757C93.171 21.9005 93.7328 22.2128 94.4581 22.2128C95.1692 22.2128 95.7274 21.8955 96.1291 21.2591C96.474 20.7324 96.6465 20.1076 96.6465 19.3849Z" fill="white"/>
<path d="M112.544 15.4766L109.922 23.3091H108.215L107.129 19.9079C106.854 19.0589 106.63 18.2148 106.455 17.3774H106.422C106.26 18.2381 106.036 19.0805 105.748 19.9079L104.594 23.3091H102.868L100.402 15.4766H102.317L103.264 19.2001C103.494 20.0807 103.682 20.9198 103.833 21.714H103.867C104.006 21.0594 104.235 20.2253 104.559 19.2167L105.748 15.4782H107.266L108.406 19.137C108.681 20.0292 108.905 20.8882 109.078 21.7157H109.129C109.255 20.9098 109.446 20.0508 109.698 19.137L110.715 15.4782H112.544V15.4766Z" fill="white"/>
<path d="M122.203 23.3096H120.34V18.8234C120.34 17.441 119.778 16.7497 118.651 16.7497C118.098 16.7497 117.652 16.9392 117.305 17.3197C116.962 17.7002 116.788 18.1488 116.788 18.6622V23.3079H114.925V17.7151C114.925 17.0272 114.902 16.2812 114.857 15.4737H116.495L116.582 16.6982H116.633C116.85 16.3177 117.174 16.0037 117.599 15.7528C118.104 15.4604 118.669 15.3125 119.287 15.3125C120.07 15.3125 120.72 15.5484 121.238 16.022C121.881 16.6019 122.203 17.4675 122.203 18.6173V23.3096Z" fill="white"/>
<path d="M127.34 23.3098H125.479V11.8833H127.34V23.3098Z" fill="white"/>
<path d="M138.309 19.3284C138.309 20.533 137.941 21.52 137.205 22.2942C136.434 23.0901 135.41 23.4872 134.135 23.4872C132.903 23.4872 131.924 23.1067 131.195 22.3424C130.466 21.5798 130.102 20.6177 130.102 19.458C130.102 18.245 130.477 17.2498 131.23 16.4771C131.984 15.7045 132.997 15.3174 134.272 15.3174C135.504 15.3174 136.491 15.6979 137.241 16.4605C137.952 17.2016 138.309 18.1586 138.309 19.3284ZM136.375 19.3849C136.375 18.6621 136.208 18.0423 135.876 17.5256C135.486 16.9008 134.928 16.5885 134.206 16.5885C133.456 16.5885 132.887 16.9008 132.498 17.5256C132.164 18.0423 131.998 18.6721 131.998 19.4164C131.998 20.1392 132.166 20.759 132.498 21.2757C132.901 21.9005 133.463 22.2128 134.189 22.2128C134.9 22.2128 135.456 21.8955 135.858 21.2591C136.204 20.7324 136.375 20.1076 136.375 19.3849Z" fill="white"/>
<path d="M147.325 23.3095H145.652L145.514 22.4072H145.462C144.89 23.1267 144.074 23.4872 143.014 23.4872C142.223 23.4872 141.583 23.2496 141.101 22.7778C140.664 22.3491 140.445 21.8157 140.445 21.1827C140.445 20.2256 140.872 19.4962 141.731 18.9911C142.587 18.486 143.793 18.2384 145.345 18.25V18.1038C145.345 17.072 144.765 16.5569 143.604 16.5569C142.778 16.5569 142.049 16.7513 141.42 17.1368L141.041 15.9936C141.819 15.5434 142.781 15.3174 143.915 15.3174C146.106 15.3174 147.204 16.3974 147.204 18.5574V21.4419C147.204 22.2245 147.245 22.8475 147.325 23.3095ZM145.391 20.6177V19.4098C143.336 19.3766 142.308 19.9033 142.308 20.9883C142.308 21.397 142.426 21.7027 142.666 21.9071C142.906 22.1115 143.211 22.2128 143.576 22.2128C143.985 22.2128 144.367 22.0915 144.715 21.8506C145.066 21.608 145.281 21.3006 145.361 20.9235C145.38 20.8387 145.391 20.7357 145.391 20.6177Z" fill="white"/>
<path d="M157.912 23.3098H156.259L156.171 22.052H156.12C155.592 23.0091 154.692 23.4876 153.428 23.4876C152.419 23.4876 151.578 23.1171 150.911 22.376C150.245 21.635 149.912 20.6729 149.912 19.4916C149.912 18.2238 150.273 17.1969 150.998 16.4127C151.7 15.6816 152.561 15.3161 153.585 15.3161C154.71 15.3161 155.498 15.67 155.946 16.3795H155.981V11.8833H157.846V21.1996C157.846 21.9623 157.867 22.6651 157.912 23.3098ZM155.981 20.0066V18.7007C155.981 18.4747 155.963 18.2919 155.93 18.1523C155.825 17.7336 155.599 17.3814 155.256 17.0973C154.909 16.8131 154.492 16.6702 154.01 16.6702C153.315 16.6702 152.771 16.9278 152.371 17.4445C151.974 17.9613 151.773 18.6209 151.773 19.4268C151.773 20.201 151.964 20.8291 152.346 21.3126C152.749 21.8277 153.293 22.0852 153.974 22.0852C154.586 22.0852 155.075 21.8709 155.446 21.4406C155.805 21.0434 155.981 20.5649 155.981 20.0066Z" fill="white"/>
<path d="M173.845 19.3284C173.845 20.533 173.477 21.52 172.741 22.2942C171.97 23.0901 170.95 23.4872 169.671 23.4872C168.443 23.4872 167.463 23.1067 166.731 22.3424C166.002 21.5798 165.638 20.6177 165.638 19.458C165.638 18.245 166.013 17.2498 166.767 16.4771C167.52 15.7045 168.534 15.3174 169.812 15.3174C171.04 15.3174 172.03 15.6979 172.777 16.4605C173.488 17.2016 173.845 18.1586 173.845 19.3284ZM171.915 19.3849C171.915 18.6621 171.748 18.0423 171.415 17.5256C171.022 16.9008 170.468 16.5885 169.742 16.5885C168.996 16.5885 168.427 16.9008 168.034 17.5256C167.7 18.0423 167.535 18.6721 167.535 19.4164C167.535 20.1392 167.702 20.759 168.034 21.2757C168.438 21.9005 168.999 22.2128 169.725 22.2128C170.436 22.2128 170.996 21.8955 171.398 21.2591C171.741 20.7324 171.915 20.1076 171.915 19.3849Z" fill="white"/>
<path d="M183.863 23.3096H182.002V18.8234C182.002 17.441 181.44 16.7497 180.311 16.7497C179.759 16.7497 179.312 16.9392 178.967 17.3197C178.623 17.7002 178.45 18.1488 178.45 18.6622V23.3079H176.585V17.7151C176.585 17.0272 176.564 16.2812 176.52 15.4737H178.155L178.242 16.6982H178.294C178.512 16.3177 178.836 16.0037 179.259 15.7528C179.766 15.4604 180.329 15.3125 180.95 15.3125C181.73 15.3125 182.381 15.5484 182.898 16.022C183.543 16.6019 183.863 17.4675 183.863 18.6173V23.3096Z" fill="white"/>
<path d="M196.401 16.7814H194.349V20.5863C194.349 21.5533 194.714 22.0368 195.435 22.0368C195.77 22.0368 196.047 22.0103 196.266 21.9554L196.314 23.2764C195.946 23.406 195.462 23.4708 194.867 23.4708C194.131 23.4708 193.558 23.2614 193.144 22.8427C192.728 22.424 192.522 21.7195 192.522 20.7309V16.7814H191.297V15.477H192.522V14.0414L194.347 13.5264V15.4754H196.399V16.7814H196.401Z" fill="white"/>
<path d="M206.264 23.3098H204.4V18.8568C204.4 17.4528 203.838 16.75 202.712 16.75C201.848 16.75 201.258 17.1571 200.935 17.9712C200.88 18.1424 200.848 18.3517 200.848 18.5976V23.3081H198.986V11.8833H200.848V16.6038H200.883C201.47 15.7448 202.311 15.3161 203.4 15.3161C204.172 15.3161 204.81 15.552 205.317 16.0256C205.948 16.6154 206.264 17.4927 206.264 18.6525V23.3098Z" fill="white"/>
<path d="M216.439 19.023C216.439 19.3353 216.414 19.5979 216.369 19.8122H210.782C210.807 20.5865 211.074 21.1763 211.591 21.5851C212.064 21.9506 212.674 22.1334 213.42 22.1334C214.247 22.1334 215.001 22.0104 215.68 21.7629L215.971 22.9725C215.177 23.2948 214.241 23.456 213.159 23.456C211.861 23.456 210.839 23.0987 210.099 22.3843C209.356 21.6698 208.988 20.7111 208.988 19.5081C208.988 18.3268 209.331 17.3431 210.023 16.5589C210.745 15.7214 211.721 15.3027 212.953 15.3027C214.158 15.3027 215.073 15.7214 215.692 16.5589C216.192 17.2235 216.439 18.046 216.439 19.023ZM214.661 18.5727C214.675 18.0559 214.553 17.6106 214.3 17.2351C213.977 16.7516 213.484 16.509 212.817 16.509C212.21 16.509 211.714 16.745 211.335 17.2185C211.026 17.5957 210.842 18.046 210.782 18.5727H214.661Z" fill="white"/>
</svg>
