<svg width="241" height="68" viewBox="0 0 241 68" fill="none" xmlns="http://www.w3.org/2000/svg">
<path d="M231.744 67.1738H9.83344C4.95364 67.1738 0.957031 63.4333 0.957031 58.8661V9.01944C0.957031 4.45224 4.95364 0.711666 9.83344 0.711666H231.744C236.624 0.711666 240.62 4.45224 240.62 9.01944V58.8661C240.62 63.4333 236.624 67.1738 231.744 67.1738Z" fill="black"/>
<path d="M231.744 2.04298C235.854 2.04298 239.198 5.17294 239.198 9.01944V58.8661C239.198 62.7126 235.854 65.8425 231.744 65.8425H9.83344C5.72366 65.8425 2.37948 62.7126 2.37948 58.8661V9.01944C2.37948 5.17294 5.72366 2.04298 9.83344 2.04298H231.744ZM231.744 0.711666H9.83344C4.95364 0.711666 0.957031 4.45224 0.957031 9.01944V58.8661C0.957031 63.4333 4.95364 67.1738 9.83344 67.1738H231.744C236.624 67.1738 240.62 63.4333 240.62 58.8661V9.01944C240.62 4.45224 236.624 0.711666 231.744 0.711666Z" fill="#A6A6A6"/>
<path d="M85.1372 17.7321C85.1372 19.1195 84.6934 20.2307 83.8191 21.0594C82.8138 22.0418 81.5045 22.5361 79.9001 22.5361C78.3667 22.5361 77.0574 22.0335 75.9834 21.0428C74.9071 20.0375 74.3701 18.8038 74.3701 17.3271C74.3701 15.8504 74.9071 14.6167 75.9834 13.6198C77.0574 12.6208 78.3667 12.1182 79.9001 12.1182C80.6635 12.1182 81.3914 12.2656 82.0859 12.5398C82.7783 12.816 83.3419 13.1899 83.7503 13.6509L82.8227 14.5274C82.1103 13.7403 81.1406 13.3519 79.9001 13.3519C78.7817 13.3519 77.8119 13.7174 76.9887 14.4547C76.1742 15.1941 75.7659 16.1516 75.7659 17.3271C75.7659 18.5027 76.1742 19.4685 76.9887 20.2079C77.8119 20.9369 78.7817 21.3107 79.9001 21.3107C81.0873 21.3107 82.0859 20.9369 82.8737 20.1995C83.393 19.7115 83.6881 19.0385 83.7658 18.1787H79.9001V16.9782H85.0573C85.1195 17.2378 85.1372 17.4891 85.1372 17.7321Z" fill="white" stroke="white" stroke-width="0.16" stroke-miterlimit="10"/>
<path d="M93.3173 13.5705H88.473V16.7274H92.8402V17.9279H88.473V21.0849H93.3173V22.3082H87.1016V12.3472H93.3173V13.5705Z" fill="white" stroke="white" stroke-width="0.16" stroke-miterlimit="10"/>
<path d="M99.0928 22.3082H97.7214V13.5705H94.75V12.3472H102.066V13.5705H99.0928V22.3082Z" fill="white" stroke="white" stroke-width="0.16" stroke-miterlimit="10"/>
<path d="M107.36 22.3082V12.3472H108.73V22.3082H107.36Z" fill="white" stroke="white" stroke-width="0.16" stroke-miterlimit="10"/>
<path d="M114.8 22.3082H113.439V13.5705H110.457V12.3472H117.782V13.5705H114.8V22.3082Z" fill="white" stroke="white" stroke-width="0.16" stroke-miterlimit="10"/>
<path d="M131.633 21.0262C130.583 22.0335 129.283 22.5361 127.732 22.5361C126.172 22.5361 124.871 22.0335 123.822 21.0262C122.774 20.0209 122.253 18.7872 122.253 17.3271C122.253 15.867 122.774 14.6333 123.822 13.6281C124.871 12.6208 126.172 12.1182 127.732 12.1182C129.274 12.1182 130.575 12.6208 131.624 13.6364C132.681 14.65 133.202 15.8754 133.202 17.3271C133.202 18.7872 132.681 20.0209 131.633 21.0262ZM124.836 20.1912C125.626 20.9369 126.587 21.3107 127.732 21.3107C128.868 21.3107 129.838 20.9369 130.619 20.1912C131.407 19.4456 131.806 18.4881 131.806 17.3271C131.806 16.1661 131.407 15.2087 130.619 14.463C129.838 13.7174 128.868 13.3436 127.732 13.3436C126.587 13.3436 125.626 13.7174 124.836 14.463C124.048 15.2087 123.649 16.1661 123.649 17.3271C123.649 18.4881 124.048 19.4456 124.836 20.1912Z" fill="white" stroke="white" stroke-width="0.16" stroke-miterlimit="10"/>
<path d="M135.126 22.3082V12.3472H136.79L141.965 20.0942H142.025L141.965 18.1792V12.3472H143.334V22.3082H141.905L136.486 14.179H136.426L136.486 16.1023V22.3082H135.126Z" fill="white" stroke="white" stroke-width="0.16" stroke-miterlimit="10"/>
<path d="M121.915 36.8548C117.745 36.8548 114.339 39.8249 114.339 43.9227C114.339 47.9873 117.745 50.9884 121.915 50.9884C126.093 50.9884 129.5 47.9873 129.5 43.9227C129.5 39.8249 126.093 36.8548 121.915 36.8548ZM121.915 48.2053C119.627 48.2053 117.658 46.4379 117.658 43.9227C117.658 41.3743 119.627 39.638 121.915 39.638C124.203 39.638 126.18 41.3743 126.18 43.9227C126.18 46.4379 124.203 48.2053 121.915 48.2053ZM105.385 36.8548C101.206 36.8548 97.8086 39.8249 97.8086 43.9227C97.8086 47.9873 101.206 50.9884 105.385 50.9884C109.561 50.9884 112.961 47.9873 112.961 43.9227C112.961 39.8249 109.561 36.8548 105.385 36.8548ZM105.385 48.2053C103.095 48.2053 101.12 46.4379 101.12 43.9227C101.12 41.3743 103.095 39.638 105.385 39.638C107.673 39.638 109.641 41.3743 109.641 43.9227C109.641 46.4379 107.673 48.2053 105.385 48.2053ZM85.7145 39.0211V42.0244H93.3771C93.1529 43.7025 92.5538 44.9362 91.6351 45.7961C90.5167 46.8346 88.7747 47.9873 85.7145 47.9873C80.9989 47.9873 77.3063 44.4253 77.3063 40.0118C77.3063 35.5983 80.9989 32.0363 85.7145 32.0363C88.2643 32.0363 90.1194 32.9689 91.4886 34.1777L93.7499 32.0613C91.8348 30.3499 89.2873 29.0352 85.7145 29.0352C79.2481 29.0352 73.8135 33.9596 73.8135 40.0118C73.8135 46.064 79.2481 50.9884 85.7145 50.9884C89.2096 50.9884 91.8348 49.9167 93.8986 47.9063C96.0134 45.9269 96.6724 43.1438 96.6724 40.8966C96.6724 40.1987 96.6103 39.5569 96.4994 39.0211H85.7145ZM166.148 41.3493C165.525 39.7688 163.601 36.8548 159.682 36.8548C155.798 36.8548 152.565 39.719 152.565 43.9227C152.565 47.8813 155.765 50.9884 160.054 50.9884C163.523 50.9884 165.525 49.0091 166.348 47.8564L163.774 46.2509C162.915 47.4265 161.745 48.2053 160.054 48.2053C158.375 48.2053 157.17 47.4846 156.397 46.064L166.496 42.1531L166.148 41.3493ZM155.851 43.7025C155.765 40.9776 158.113 39.5819 159.795 39.5819C161.113 39.5819 162.231 40.1987 162.604 41.0814L155.851 43.7025ZM147.643 50.5585H150.963V29.7891H147.643V50.5585ZM142.206 38.4292H142.095C141.35 37.6025 139.927 36.8548 138.125 36.8548C134.344 36.8548 130.887 39.962 130.887 43.9455C130.887 47.9063 134.344 50.9884 138.125 50.9884C139.927 50.9884 141.35 50.2345 142.095 49.383H142.206V50.3965C142.206 53.0986 140.664 54.5504 138.176 54.5504C136.148 54.5504 134.89 53.1796 134.371 52.0269L131.484 53.1547C132.316 55.0281 134.519 57.3335 138.176 57.3335C142.069 57.3335 145.353 55.1901 145.353 49.9749V37.2848H142.206V38.4292ZM138.409 48.2053C136.121 48.2053 134.206 46.4129 134.206 43.9455C134.206 41.4553 136.121 39.638 138.409 39.638C140.664 39.638 142.441 41.4553 142.441 43.9455C142.441 46.4129 140.664 48.2053 138.409 48.2053ZM181.691 29.7891H173.751V50.5585H177.062V42.689H181.691C185.368 42.689 188.974 40.1987 188.974 36.238C188.974 32.2793 185.359 29.7891 181.691 29.7891ZM181.777 39.7999H177.062V32.6781H181.777C184.249 32.6781 185.661 34.5993 185.661 36.238C185.661 37.8455 184.249 39.7999 181.777 39.7999ZM202.244 36.8154C199.852 36.8154 197.364 37.804 196.341 39.9952L199.279 41.1479C199.912 39.9952 201.075 39.6213 202.304 39.6213C204.022 39.6213 205.764 40.5871 205.79 42.2923V42.5104C205.191 42.1864 203.908 41.7066 202.331 41.7066C199.166 41.7066 195.942 43.337 195.942 46.3797C195.942 49.1628 198.534 50.9552 201.447 50.9552C203.675 50.9552 204.905 50.0144 205.677 48.9198H205.79V50.5253H208.988V42.5581C208.988 38.8757 206.05 36.8154 202.244 36.8154ZM201.845 48.197C200.762 48.197 199.253 47.6944 199.253 46.4379C199.253 44.8303 201.134 44.2135 202.763 44.2135C204.221 44.2135 204.905 44.5146 205.79 44.9113C205.531 46.8346 203.762 48.197 201.845 48.197ZM220.638 37.2702L216.832 46.2738H216.719L212.785 37.2702H209.214L215.126 49.8524L211.753 56.8537H215.212L224.322 37.2702H220.638ZM190.793 50.5585H194.113V29.7891H190.793V50.5585Z" fill="white"/>
<path d="M19.4825 13.238C18.961 13.7489 18.6592 14.5444 18.6592 15.5746V52.3198C18.6592 53.35 18.961 54.1455 19.4825 54.6564L19.6112 54.7686L41.6113 34.1861V33.7L19.6112 13.1175L19.4825 13.238Z" fill="url(#paint0_linear)"/>
<path d="M48.9356 41.0498L41.6104 34.1855V33.6995L48.9445 26.8352L49.1087 26.9245L57.7943 31.5499C60.273 32.8625 60.273 35.0225 57.7943 36.3435L49.1087 40.9605L48.9356 41.0498Z" fill="url(#paint1_linear)"/>
<path d="M49.1106 40.9606L41.6123 33.9426L19.4834 54.6559C20.3067 55.4659 21.6492 55.5636 23.176 54.7536L49.1106 40.9606Z" fill="url(#paint2_linear)"/>
<path d="M49.1106 26.9249L23.176 13.1319C21.6492 12.3302 20.3067 12.4278 19.4834 13.2378L41.6123 33.9429L49.1106 26.9249Z" fill="url(#paint3_linear)"/>
<defs>
<linearGradient id="paint0_linear" x1="39.658" y1="52.7025" x2="11.8341" y2="22.9742" gradientUnits="userSpaceOnUse">
<stop stop-color="#00A0FF"/>
<stop offset="0.0066" stop-color="#00A1FF"/>
<stop offset="0.2601" stop-color="#00BEFF"/>
<stop offset="0.5122" stop-color="#00D2FF"/>
<stop offset="0.7604" stop-color="#00DFFF"/>
<stop offset="1" stop-color="#00E3FF"/>
</linearGradient>
<linearGradient id="paint1_linear" x1="61.022" y1="33.9402" x2="18.0657" y2="33.9402" gradientUnits="userSpaceOnUse">
<stop stop-color="#FFE000"/>
<stop offset="0.4087" stop-color="#FFBD00"/>
<stop offset="0.7754" stop-color="#FFA500"/>
<stop offset="1" stop-color="#FF9C00"/>
</linearGradient>
<linearGradient id="paint2_linear" x1="45.0333" y1="30.1275" x2="7.30183" y2="-10.1865" gradientUnits="userSpaceOnUse">
<stop stop-color="#FF3A44"/>
<stop offset="1" stop-color="#C31162"/>
</linearGradient>
<linearGradient id="paint3_linear" x1="13.9131" y1="66.8812" x2="30.7619" y2="48.8793" gradientUnits="userSpaceOnUse">
<stop stop-color="#32A071"/>
<stop offset="0.0685" stop-color="#2DA771"/>
<stop offset="0.4762" stop-color="#15CF74"/>
<stop offset="0.8009" stop-color="#06E775"/>
<stop offset="1" stop-color="#00F076"/>
</linearGradient>
</defs>
</svg>
