<svg width="580" height="349" viewBox="0 0 580 349" fill="none" xmlns="http://www.w3.org/2000/svg">
<ellipse opacity="0.2" cx="289.529" cy="330.22" rx="289.529" ry="18.7803" fill="black" fill-opacity="0.13"/>
<path d="M482.81 275.308C477.04 273.865 486.417 291.537 491.826 300.552C495.932 307.765 504.448 306.864 504.448 302.356C504.448 297.848 490.023 277.111 482.81 275.308Z" fill="url(#paint0_linear)"/>
<path d="M525.242 277.07C524.991 271.127 510.699 285.125 503.585 292.866C497.83 298.847 501.107 306.759 505.43 305.482C509.754 304.205 525.556 284.498 525.242 277.07Z" fill="url(#paint1_linear)"/>
<path d="M504.405 269.25C500.658 264.632 497.543 284.392 496.454 294.85C495.406 303.083 502.756 307.476 505.463 303.872C508.171 300.267 509.09 275.024 504.405 269.25Z" fill="url(#paint2_linear)"/>
<path d="M99.6332 325.474L102.338 315.556H94.2237L81.6014 331.785L99.6332 325.474Z" fill="#6FCF97"/>
<path d="M45.5379 331.785L52.7506 325.474L46.4395 320.966L26.6045 331.785H45.5379Z" fill="#6FCF97"/>
<path d="M215.037 127.124L209.628 139.746L206.923 143.353L197.907 146.057L197.005 136.14L203.316 120.813L215.037 127.124Z" fill="#FF9921"/>
<path d="M242.085 132.534L244.79 136.14L252.002 132.534L248.396 126.223C245.691 121.715 240.551 115.673 237.577 112.699C234.872 109.994 235.173 111.797 234.872 113.6L240.282 120.813C240.282 120.813 238.065 122.728 237.577 124.419C236.983 126.477 237.295 128.044 238.478 129.829C239.451 131.296 242.085 132.534 242.085 132.534Z" fill="url(#paint3_linear)"/>
<path d="M204.217 154.172L208.725 160.483L216.839 154.172C214.435 151.467 209.626 145.877 209.626 145.156V139.746C207.823 140.347 205.218 142.302 202.413 141.55C199.528 140.775 198.206 137.943 197.004 136.14C197.004 136.14 195.184 137.033 194.299 137.943C191.353 140.971 192.189 145.102 194.299 148.762C196.502 152.584 204.217 154.172 204.217 154.172Z" fill="url(#paint4_linear)"/>
<path d="M252.003 132.534L285.37 164.859L267.33 169.499L244.79 136.14L252.003 132.534Z" fill="url(#paint5_linear)"/>
<path d="M307.001 147.861C304.116 141.369 314.815 131.932 320.525 128.026L344.867 156.876L333.146 172.203L324.131 192.038L309.705 172.203L315.115 160.483C313.612 158.98 309.886 154.352 307.001 147.861Z" fill="url(#paint6_linear)"/>
<path d="M52.7511 324.572L46.4399 320.966L137.5 231.708H208.726L224.053 261.461L130.288 278.591L52.7511 324.572Z" fill="url(#paint7_linear)"/>
<path opacity="0.2" d="M220.776 261.268L130.152 278.622L114.727 287.298L141.721 233.309L220.776 261.268Z" fill="black"/>
<path d="M246.592 213.677C240.822 217.283 230.063 219.988 225.855 220.889L243.887 246.134L298.884 230.807L321.424 177.613L312.408 165.892C308.501 165.291 298.343 163.007 292.573 162.286C285.36 161.384 250.198 173.105 243.887 173.105C238.838 173.105 223.752 160.483 216.839 154.172L208.725 160.483C214.736 168.597 228.74 185.547 236.674 188.432C246.592 192.039 273.64 184.826 271.836 188.432C270.033 192.039 253.805 209.169 246.592 213.677Z" fill="url(#paint8_linear)"/>
<path opacity="0.2" d="M282.478 191.854C279.393 199.566 256.769 209.85 245.843 214.028C257.412 206.315 266.089 195.71 271.873 188.961C277.015 187.033 285.563 184.141 282.478 191.854Z" fill="black"/>
<path d="M102.339 315.556H94.2246C102.639 281.596 121.633 213.677 130.288 213.677C138.943 213.677 197.607 218.485 225.857 220.889L241.184 240.724L200.53 259.34L144.714 247.035L102.339 315.556Z" fill="url(#paint9_linear)"/>
<path d="M220.448 326.375C168.156 329.08 161.845 318.261 157.337 310.147C151.927 293.918 157.337 283.099 184.384 266.87C211.432 250.642 244.791 234.413 271.839 219.086C298.886 203.759 340.359 130.73 382.734 123.518C425.109 116.305 451.255 170.4 461.172 227.2C471.09 284.001 440.436 316.458 429.617 316.458C418.798 316.458 272.74 323.67 220.448 326.375Z" fill="url(#paint10_linear)" fill-opacity="0.95"/>
<path d="M320.524 147.861C314.754 145.697 318.12 134.337 320.524 128.927C323.491 119.01 343.063 101.88 356.587 99.1748C370.111 96.47 388.143 111.797 388.143 121.715C388.143 131.632 388.143 137.042 400.765 144.254C413.387 151.467 416.092 170.4 402.568 178.515C389.044 186.629 390.847 180.318 371.012 187.531C351.177 194.743 340.358 228.102 332.244 213.677C324.13 199.251 337.654 200.153 329.539 190.235C321.425 180.318 341.26 164.991 340.358 157.778C339.457 150.565 327.737 150.565 320.524 147.861Z" fill="url(#paint11_linear)"/>
<rect x="64.1665" y="111.117" width="70.324" height="52.2922" fill="#25A9E1"/>
<path d="M91.7416 135.828C93.9952 140.257 97.626 143.873 102.055 146.142L105.498 142.699C105.921 142.276 106.547 142.135 107.094 142.323C108.847 142.902 110.741 143.215 112.682 143.215C113.542 143.215 114.247 143.92 114.247 144.78V150.242C114.247 151.103 113.542 151.807 112.682 151.807C97.986 151.807 86.0762 139.897 86.0762 125.202C86.0762 124.341 86.7804 123.637 87.6412 123.637H93.1188C93.9795 123.637 94.6838 124.341 94.6838 125.202C94.6838 127.158 94.9968 129.036 95.5759 130.789C95.748 131.337 95.6228 131.947 95.1846 132.385L91.7416 135.828Z" fill="white"/>
<rect x="100.162" width="70.324" height="52.2922" fill="#25A9E1"/>
<path d="M148.677 14.0852H123.636C121.915 14.0852 120.522 15.4937 120.522 17.2153L120.506 35.9955C120.506 37.717 121.915 39.1256 123.636 39.1256H148.677C150.398 39.1256 151.807 37.717 151.807 35.9955V17.2153C151.807 15.4937 150.398 14.0852 148.677 14.0852ZM148.677 20.3453L136.157 28.1704L123.636 20.3453V17.2153L136.157 25.0404L148.677 17.2153V20.3453Z" fill="white"/>
<rect x="239.448" width="70.324" height="52.2922" fill="#25A9E1"/>
<path d="M273.864 10.9551C265.225 10.9551 258.229 17.9664 258.229 26.6054C258.229 35.2443 265.225 42.2556 273.864 42.2556C282.519 42.2556 289.53 35.2443 289.53 26.6054C289.53 17.9664 282.519 10.9551 273.864 10.9551ZM284.71 20.3453H280.093C279.592 18.389 278.872 16.511 277.933 14.7738C280.813 15.7597 283.207 17.763 284.71 20.3453ZM273.88 14.1478C275.179 16.0258 276.196 18.1073 276.869 20.3453H270.891C271.563 18.1073 272.581 16.0258 273.88 14.1478ZM261.766 29.7354C261.516 28.7338 261.36 27.6852 261.36 26.6054C261.36 25.5255 261.516 24.4769 261.766 23.4753H267.056C266.931 24.5082 266.837 25.5411 266.837 26.6054C266.837 27.6696 266.931 28.7025 267.056 29.7354H261.766ZM263.05 32.8654H267.667C268.167 34.8217 268.887 36.6997 269.826 38.4369C266.947 37.451 264.552 35.4634 263.05 32.8654ZM267.667 20.3453H263.05C264.552 17.7473 266.947 15.7597 269.826 14.7738C268.887 16.511 268.167 18.389 267.667 20.3453ZM273.88 39.0629C272.581 37.1849 271.563 35.1034 270.891 32.8654H276.869C276.196 35.1034 275.179 37.1849 273.88 39.0629ZM277.542 29.7354H270.218C270.077 28.7025 269.967 27.6696 269.967 26.6054C269.967 25.5411 270.077 24.4926 270.218 23.4753H277.542C277.683 24.4926 277.792 25.5411 277.792 26.6054C277.792 27.6696 277.683 28.7025 277.542 29.7354ZM277.933 38.4369C278.872 36.6997 279.592 34.8217 280.093 32.8654H284.71C283.207 35.4477 280.813 37.451 277.933 38.4369ZM280.703 29.7354C280.828 28.7025 280.922 27.6696 280.922 26.6054C280.922 25.5411 280.828 24.5082 280.703 23.4753H285.993C286.243 24.4769 286.4 25.5255 286.4 26.6054C286.4 27.6852 286.243 28.7338 285.993 29.7354H280.703Z" fill="white"/>
<path d="M481.004 293.34C483.709 288.832 521.201 289.734 522.477 293.34C523.753 296.946 520.673 316.782 514.363 318.585C508.053 320.387 495.43 321.289 490.02 318.585C484.609 315.88 478.299 297.848 481.004 293.34Z" fill="#25A9E1"/>
<defs>
<linearGradient id="paint0_linear" x1="492.723" y1="275.225" x2="492.723" y2="305.856" gradientUnits="userSpaceOnUse">
<stop stop-color="#6CEDA0"/>
<stop offset="1" stop-color="#199D56"/>
</linearGradient>
<linearGradient id="paint1_linear" x1="528.129" y1="286.553" x2="498.752" y2="295.228" gradientUnits="userSpaceOnUse">
<stop stop-color="#6CEDA0"/>
<stop offset="1" stop-color="#199D56"/>
</linearGradient>
<linearGradient id="paint2_linear" x1="512.381" y1="275.136" x2="493.986" y2="299.629" gradientUnits="userSpaceOnUse">
<stop stop-color="#6CEDA0"/>
<stop offset="1" stop-color="#199D56"/>
</linearGradient>
<linearGradient id="paint3_linear" x1="254.559" y1="117.689" x2="233.94" y2="126.453" gradientUnits="userSpaceOnUse">
<stop stop-color="#FFF8E1"/>
<stop offset="1" stop-color="#FFCC80"/>
</linearGradient>
<linearGradient id="paint4_linear" x1="220.488" y1="142.387" x2="195.358" y2="157.93" gradientUnits="userSpaceOnUse">
<stop stop-color="#FFF8E1"/>
<stop offset="1" stop-color="#FFCC80"/>
</linearGradient>
<linearGradient id="paint5_linear" x1="268.009" y1="130.054" x2="265.802" y2="166.422" gradientUnits="userSpaceOnUse">
<stop stop-color="#98D0FC"/>
<stop offset="1" stop-color="#3481D7"/>
</linearGradient>
<linearGradient id="paint6_linear" x1="316.221" y1="137.865" x2="317.778" y2="162.597" gradientUnits="userSpaceOnUse">
<stop stop-color="#FFF8E1"/>
<stop offset="1" stop-color="#FFCC80"/>
</linearGradient>
<linearGradient id="paint7_linear" x1="81.9474" y1="266.088" x2="150.398" y2="293.083" gradientUnits="userSpaceOnUse">
<stop offset="0.0642604" stop-color="#EB5757"/>
<stop offset="1" stop-color="#872727"/>
</linearGradient>
<linearGradient id="paint8_linear" x1="233.309" y1="154.254" x2="283.146" y2="212.825" gradientUnits="userSpaceOnUse">
<stop stop-color="#98D0FC"/>
<stop offset="1" stop-color="#3481D7"/>
</linearGradient>
<linearGradient id="paint9_linear" x1="134.972" y1="208.243" x2="194.746" y2="274.765" gradientUnits="userSpaceOnUse">
<stop stop-color="#EB5757"/>
<stop offset="1" stop-color="#872727"/>
</linearGradient>
<linearGradient id="paint10_linear" x1="579" y1="196" x2="197.164" y2="388.594" gradientUnits="userSpaceOnUse">
<stop stop-color="#515EE0"/>
<stop offset="1" stop-color="#28378F" stop-opacity="0.98"/>
</linearGradient>
<linearGradient id="paint11_linear" x1="364.441" y1="98.8598" x2="364.441" y2="217.256" gradientUnits="userSpaceOnUse">
<stop stop-color="#25A9E1"/>
<stop offset="1" stop-color="#515EE0"/>
</linearGradient>
</defs>
</svg>
