<svg width="689" height="722" viewBox="0 0 689 722" fill="none" xmlns="http://www.w3.org/2000/svg">
<g filter="url(#filter0_d)">
<path opacity="0.4" d="M624.23 165.41C479.455 96.5175 415.592 284.909 315.761 315.906C216.017 361.253 119.838 308.176 60.4514 353.674C-33.6833 425.794 7.63344 551.963 67.8968 605.05C154.317 681.18 307.895 653.78 466.635 571.462C665.517 468.329 751.173 225.817 624.23 165.41Z" fill="#28378F"/>
<path opacity="0.2" d="M143.123 240.5C148.123 253 133.123 272.5 111.623 279C93.1228 284.593 75.1228 284 70.1228 271C65.6997 259.5 79.6228 247 95.6228 240.5C111.623 234 138.123 228 143.123 240.5Z" fill="#28378F"/>
<path opacity="0.2" d="M306.623 215C302.732 205.06 316.439 181.866 333.425 176.799C348.042 172.438 361.734 162.164 365.623 172.5C369.063 181.644 358.532 202.325 345.883 207.415C333.235 212.505 310.514 224.94 306.623 215Z" fill="#28378F"/>
<path opacity="0.2" d="M295.415 707.215C291.524 697.276 303.439 681.866 320.425 676.799C335.042 672.438 349.238 672.985 353.127 683.321C356.567 692.465 345.531 702.325 332.883 707.415C320.235 712.505 299.307 717.155 295.415 707.215Z" fill="#28378F"/>
<path opacity="0.2" d="M471.196 656.55C463.101 637.52 488.902 595.235 524.196 585.55C554.565 577.216 603.605 594.26 611.695 614.05C618.852 631.555 571.976 628.66 545.697 638.393C519.418 648.126 479.29 675.579 471.196 656.55Z" fill="#28378F"/>
<mask id="mask0" style="mask-type:alpha" maskUnits="userSpaceOnUse" x="20" y="154" width="647" height="490">
<path d="M606.585 166.944C466.013 104.869 409.665 287.479 314.764 320.024C220.317 366.339 126.741 318.084 70.9871 363.416C-17.3894 435.272 25.4839 555.217 84.6293 604.486C169.447 675.139 315.965 644.544 466.013 561.093C654.003 456.539 729.843 221.374 606.585 166.944Z" fill="#98C3E8"/>
</mask>
<g mask="url(#mask0)">
<rect x="-85.46" y="73.4017" width="805.162" height="681.485" fill="url(#paint0_linear)"/>
<path d="M16.1316 290.467C89.9591 327.697 172.621 431.904 172.621 481.662C172.621 542.869 42.8441 636.678 -16.6807 689.893L491.278 722.705C473.189 641.726 427.517 461.7 455.311 421.716C491.278 369.974 636.83 382.594 718.439 392.059L740.525 161.742C700.771 178.359 611.8 226.105 563.212 213.485C518.238 201.803 431.963 151.436 395.365 119.465" stroke="white" stroke-opacity="0.2" stroke-width="15"/>
<path d="M206.064 233.677C226.257 338.844 281.154 531.637 339.206 461.469C411.772 373.76 469.193 260.179 523.46 335.269C566.873 395.34 630.73 513.843 657.233 565.585" stroke="white" stroke-opacity="0.2" stroke-width="15"/>
<path fill-rule="evenodd" clip-rule="evenodd" d="M433.623 295C433.623 299.418 430.041 303 425.623 303C421.205 303 417.623 299.418 417.623 295C417.623 290.582 421.205 287 425.623 287C430.041 287 433.623 290.582 433.623 295ZM102.623 468C107.041 468 110.623 464.418 110.623 460C110.623 455.582 107.041 452 102.623 452C98.2048 452 94.623 455.582 94.623 460C94.623 464.418 98.2048 468 102.623 468ZM276.623 570C281.041 570 284.623 566.418 284.623 562C284.623 557.582 281.041 554 276.623 554C272.205 554 268.623 557.582 268.623 562C268.623 566.418 272.205 570 276.623 570ZM550.623 452C555.041 452 558.623 448.418 558.623 444C558.623 439.582 555.041 436 550.623 436C546.205 436 542.623 439.582 542.623 444C542.623 448.418 546.205 452 550.623 452Z" fill="#28378F" fill-opacity="0.6"/>
<circle cx="72.623" cy="547" r="18" stroke="white" stroke-opacity="0.4" stroke-width="8"/>
<circle cx="652.623" cy="270" r="18" stroke="white" stroke-opacity="0.4" stroke-width="8"/>
<circle cx="402.623" cy="503" r="18" stroke="white" stroke-opacity="0.4" stroke-width="8"/>
</g>
<g filter="url(#filter1_d)">
<rect x="452.623" y="224" width="88" height="88" rx="10" fill="white"/>
</g>
<path d="M492.623 284V272H500.623V284H510.623V268H516.623L496.623 250L476.623 268H482.623V284H492.623Z" fill="#1C1857"/>
<g filter="url(#filter2_d)">
<path d="M440.046 10.7127H412.616C408.83 10.7127 405.762 12.9591 405.762 15.7302V35.8115C405.762 38.5825 408.83 40.8289 412.616 40.8289H440.046C443.831 40.8289 446.9 38.5825 446.9 35.8115V15.7302C446.9 12.9591 443.831 10.7127 440.046 10.7127Z" fill="#25A9E1"/>
</g>
<path d="M436.623 24.7181H432.453L435.693 22.3298L434.283 21.2831L429.623 24.7181H427.623V23.2439L432.283 19.8089L430.863 18.7695L427.623 21.1578V18.084H425.623V21.1578L422.383 18.7695L420.963 19.8089L425.623 23.2439V24.7181H423.623L418.963 21.2831L417.553 22.3298L420.793 24.7181H416.623V26.1924H420.793L417.553 28.5807L418.963 29.6274L423.623 26.1924H425.623V27.6666L420.963 31.1017L422.383 32.141L425.623 29.7527V32.8265H427.623V29.7527L430.863 32.141L432.283 31.1017L427.623 27.6666V26.1924H429.623L434.283 29.6274L435.693 28.5807L432.453 26.1924H436.623V24.7181Z" fill="white"/>
<g filter="url(#filter3_d)">
<path d="M613.907 86.6368H586.477C582.692 86.6368 579.623 88.8832 579.623 91.6543V111.736C579.623 114.507 582.692 116.753 586.477 116.753H613.907C617.693 116.753 620.761 114.507 620.761 111.736V91.6543C620.761 88.8832 617.693 86.6368 613.907 86.6368Z" fill="#25A9E1"/>
</g>
<path d="M609.623 99.168C609.623 95.4824 605.623 92.5339 600.623 92.5339C595.623 92.5339 591.623 95.4824 591.623 99.168C591.623 101.453 593.223 103.517 595.623 104.696V106.539C595.623 107.498 596.423 108.308 597.623 108.603V108.751C597.623 110.004 598.923 110.962 600.623 110.962C602.323 110.962 603.623 110.004 603.623 108.751V108.603C604.823 108.308 605.623 107.498 605.623 106.539V104.696C608.023 103.517 609.623 101.453 609.623 99.168ZM593.623 99.168C593.623 96.2932 596.723 94.0081 600.623 94.0081C604.523 94.0081 607.623 96.2932 607.623 99.168C607.623 101.748 605.023 103.886 601.623 104.254V102.411L603.323 101.158C603.723 100.863 603.723 100.421 603.323 100.126C602.923 99.8314 602.323 99.8314 601.923 100.126L600.623 101.085L599.323 100.126C598.923 99.8314 598.323 99.8314 597.923 100.126C597.523 100.421 597.523 100.863 597.923 101.158L599.623 102.411V104.254C596.223 103.886 593.623 101.748 593.623 99.168ZM600.623 109.488C600.023 109.488 599.623 109.193 599.623 108.751H601.623C601.623 109.193 601.223 109.488 600.623 109.488ZM603.623 106.539C603.623 106.982 603.223 107.276 602.623 107.276H598.623C598.023 107.276 597.623 106.982 597.623 106.539V105.434C598.523 105.655 599.523 105.802 600.623 105.802C601.723 105.802 602.723 105.655 603.623 105.434V106.539Z" fill="white"/>
<g filter="url(#filter4_d)">
<path d="M393.907 86.6368H366.477C362.692 86.6368 359.623 88.8832 359.623 91.6543V111.736C359.623 114.507 362.692 116.753 366.477 116.753H393.907C397.693 116.753 400.761 114.507 400.761 111.736V91.6543C400.761 88.8832 397.693 86.6368 393.907 86.6368Z" fill="#25A9E1"/>
</g>
<path d="M386.623 98.4309H385.623V96.9566C385.623 94.9222 383.383 93.271 380.623 93.271C377.863 93.271 375.623 94.9222 375.623 96.9566V98.4309H374.623C373.523 98.4309 372.623 99.0943 372.623 99.9051V107.276C372.623 108.087 373.523 108.751 374.623 108.751H386.623C387.723 108.751 388.623 108.087 388.623 107.276V99.9051C388.623 99.0943 387.723 98.4309 386.623 98.4309ZM380.623 105.065C379.523 105.065 378.623 104.402 378.623 103.591C378.623 102.78 379.523 102.117 380.623 102.117C381.723 102.117 382.623 102.78 382.623 103.591C382.623 104.402 381.723 105.065 380.623 105.065ZM383.723 98.4309H377.523V96.9566C377.523 95.6962 378.913 94.6715 380.623 94.6715C382.333 94.6715 383.723 95.6962 383.723 96.9566V98.4309Z" fill="white"/>
<g filter="url(#filter5_d)">
<path d="M567.907 10.7127H540.477C536.692 10.7127 533.623 12.9591 533.623 15.7302V35.8115C533.623 38.5825 536.692 40.8289 540.477 40.8289H567.907C571.693 40.8289 574.761 38.5825 574.761 35.8115V15.7302C574.761 12.9591 571.693 10.7127 567.907 10.7127Z" fill="#25A9E1"/>
</g>
<path d="M559.934 21.6933H543.603V29.217H559.934V21.6933Z" fill="white"/>
<path d="M564.336 23.1905L560.731 24.3073V26.6348L564.336 27.7516H565.643V23.1905H564.336Z" fill="white"/>
<path d="M500.014 307C498.897 311.364 500.41 313.88 501.601 314.5C503.963 315.73 506.601 317.27 506.601 317.27C506.601 317.27 523.029 345.414 527.791 347.429C533.347 349.778 546.045 351 546.045 351L551.601 339.889C551.601 339.889 538.902 337.111 533.347 335.921C529.603 335.118 513.109 317.27 513.109 317.27L516.283 311.714H510.331C505.966 308.54 503.601 302 503.601 302C503.601 302 500.776 304.02 500.014 307Z" fill="url(#paint1_linear)"/>
<path d="M565.101 357.5C563.101 355.5 551.601 352.333 546.101 351L551.601 340C553.767 340 560.101 339.5 568.101 337.5C578.101 335 581.601 326 593.101 335.5C602.301 343.1 618.267 376.333 625.101 392C614.354 402.243 607.217 405.569 593.101 408.5C592.267 406.833 589.801 401.2 586.601 392C582.601 380.5 570.101 380.5 568.101 376.5C566.101 372.5 567.601 360 565.101 357.5Z" fill="url(#paint2_linear)"/>
<path d="M601.101 471C597.501 463 597.434 425 596.101 407.5C608.295 405.103 614.734 402.016 625.101 391.5C625.101 391.5 642.101 399.5 641.101 418C640.101 436.5 647.621 445.841 652.101 452C656.101 457.5 665.601 469.167 670.601 477L665.601 486.5C660.101 480.667 644.001 468.8 635.601 462C627.201 455.2 624.434 438.167 623.101 429C622.267 438.667 618.101 456.4 620.101 462C622.101 467.6 643.601 484.5 652.101 493L649.101 501.5C634.601 494.667 604.701 479 601.101 471Z" fill="url(#paint3_linear)"/>
<path d="M559.101 323.5C559.501 321.9 558.934 317.167 559.601 315.5C564.401 316.3 567.101 319.667 568.101 321C569.101 320.833 570.535 320.369 571.101 321.5C571.601 322.5 571.101 324.5 569.601 326L573.101 335.5C571.442 336.577 570.432 336.939 568.601 337.5C569.601 335 569.101 333 568.601 332C565.001 334.8 563.601 334.667 562.101 334.5L560.6 328L558.101 328.5C558.601 327.667 558.701 325.1 559.101 323.5Z" fill="url(#paint4_linear)"/>
<path d="M568.1 321C566.1 318.2 561.267 316.167 559.1 315.5C555.1 312.5 557.1 306 566.6 303C576.1 300 580.1 308 582.1 310C584.1 312 585.1 318.5 594.1 322.5C603.1 326.5 602.6 321.5 608.1 321.5C613.6 321.5 616.1 325 615.1 328C614.1 331 613.6 334.5 619.6 338.5C625.6 342.5 620.1 348 619.6 354C619.1 360 611.1 357 602.6 357C594.1 357 595.6 357 594.1 351.5C592.6 346 590.1 344 587.1 342.5C584.1 341 577.1 342 575.6 340.5C574.4 339.3 571.1 330.333 569.6 326C570.267 325 571.5 322.7 571.1 321.5C570.7 320.3 568.933 320.667 568.1 321Z" fill="#F2994A"/>
<path d="M549.101 381.5L573.101 380C575.901 380.4 580.601 383.833 582.601 385.5C581.934 387 580.001 390 577.601 390C575.201 390 557.601 387 549.101 385.5H547.101V378L549.101 381.5Z" fill="url(#paint5_linear)"/>
<path d="M547.101 389V372H538.601V389H547.101Z" fill="#F2C94C"/>
<path d="M665.601 515.5C663.201 515.1 653.434 505.833 649.101 501.5L652.101 493C654.101 493.833 658.301 495.3 659.101 496.5C660.101 498 668.601 516 665.601 515.5Z" fill="#5A98D0"/>
<path d="M677.601 504.5C676.401 502.5 669.101 492.833 665.601 486.5L670.601 477C672.934 479 673.101 479 675.601 482.5C676.763 484.127 679.101 507 677.601 504.5Z" fill="#5A98D0"/>
<path opacity="0.2" d="M626.101 414.5L623.101 429.5C623.601 435 626.601 448.5 631.601 458C625.601 439 627.601 424.833 626.101 414.5Z" fill="black"/>
<path d="M195.623 639L194.123 634L202.123 632.5C205.956 634.5 213.323 638.9 212.123 640.5C211.723 641.3 200.956 639.833 195.623 639Z" fill="#D06262"/>
<path d="M155.123 592L159.623 599.5C159.29 604.667 158.223 614.8 156.623 614C155.023 613.2 149.956 600.333 147.623 594L155.123 592Z" fill="#D06262"/>
<path d="M128.952 546.993C123.622 541.458 118.779 531.024 117.024 526.5C122.152 524.019 133.548 518.352 138.108 515.522C142.668 512.693 151.316 506.274 155.07 503.418C157.26 505.392 163.633 510.262 171.604 513.948C192.075 523.613 203.768 536.095 207.808 547.272C211.041 556.213 197.798 569.449 190.274 574.994C185.915 567.586 183.292 564.59 178.124 557.534L179.88 549.338L169.556 546.271C171.082 548.307 176.084 555.01 183.881 565.54C197.951 583.125 202.823 613.172 203.501 625.997C200.876 626.573 194.413 627.636 189.56 627.279C188.987 621.05 181.182 607.211 173.729 594.959C172.213 596.773 170.112 598.942 168.888 599.054C162.693 597.214 160.774 589.089 160.589 585.256L165.271 581.335C164.629 580.31 164.029 579.349 163.479 578.463C155.816 566.113 135.613 553.912 128.952 546.993Z" fill="#1F3F68"/>
<path d="M156.97 502.239C142.436 513.451 112.351 533.557 108.285 524.291C103.203 512.708 104.199 512.616 101.389 509.36C98.5785 506.103 97.8916 498.635 96.621 495.739C95.9825 494.284 90.834 487.917 86.7184 480.08C86.7184 480.08 86.5947 479.853 86.3856 479.439C83.4636 473.737 81.1559 467.32 81.5356 461.477C81.826 452.914 88.3393 447.391 88.3393 447.391C92.2211 443.253 95.862 442.558 97.123 442.669L97.1464 442.685C100.181 444.749 104.668 447.8 106.257 447.654C107.851 447.508 110.123 444.5 111.623 443C119.229 443.807 121.552 441.859 127.497 442.669C134.828 443.669 154.623 454 170.123 426.5C171.663 426.86 175.134 428.229 177.623 428C169.123 453 161.623 460.781 154.623 463.231C149.251 465.112 145.018 465.636 141.675 465.602C141.061 468.863 140.246 474.224 138.887 479.691C141.681 484.807 144.635 489.505 146.955 491.612C152.981 497.083 159.786 500.102 156.97 502.239Z" fill="white"/>
<path d="M156.685 531.89L170.1 546.723L179.881 549.338L179.297 553.911C181.542 551.027 184.42 544.101 177.969 539.472C171.518 534.844 161.092 532.489 156.685 531.89Z" fill="black" fill-opacity="0.2"/>
<path d="M165.248 581.313L173.547 595.111L172.19 596.742C170.965 594.344 167.749 592.129 165.031 589.869C162.856 588.061 162.4 584.922 162.444 583.579L165.248 581.313Z" fill="black" fill-opacity="0.2"/>
<path d="M126.69 506.028C112.493 504.522 95.2269 489.675 88.3686 482.439C104.227 496.546 122.655 500.374 128.493 498.331C133.163 496.696 136.743 484.527 138.624 479.5L142.422 486.003C143.094 493.306 140.888 507.534 126.69 506.028Z" fill="black" fill-opacity="0.2"/>
<path d="M121.59 477.877C118.443 478.452 110.297 471.551 106.642 468.206C120.097 478.014 120.124 473 137.124 461C136.385 462.072 129.124 476.5 121.59 477.877Z" fill="black" fill-opacity="0.2"/>
<path d="M142.123 463.5C140.41 463.156 138.919 462.576 137.123 461L138.623 457.5C138.456 456.667 138.223 454.8 138.623 454C139.023 453.2 140.623 452.333 141.123 452L140.623 454.5L143.123 451.5L147.123 455L146.623 458.5L143.623 460L142.123 463.5Z" fill="#F2994A"/>
<path d="M178.623 423L177.623 428C176.023 428.4 171.79 427.167 170.123 426.5C170.623 425 172.223 421 172.623 419C173.023 417 176.79 414.833 178.623 414H180.623L178.623 417.5V423Z" fill="#F2994A"/>
<path d="M94.6228 432.5C95.4228 434.1 97.6228 437.5 98.6228 439C99.2895 437.667 100.223 434.7 98.6228 433.5C97.0228 432.3 95.6228 430.333 95.1228 429.5C95.6228 429.167 96.9228 428.5 98.1228 428.5C97.3228 422.5 101.456 420.333 103.623 420L112.123 419.5L112.623 422C115.789 419 121.523 412.5 119.123 410.5C116.123 408 107.123 414.5 101.123 414.5C95.1228 414.5 92.6228 417.5 91.1228 420.5C89.6228 423.5 93.6228 430.5 94.6228 432.5Z" fill="#316099"/>
<path d="M106.123 448C104.523 448 99.9564 444.833 97.123 443C98.4564 442.333 99.123 439.8 99.123 439C99.123 438 100.123 434 99.123 433.5C98.123 433 95.123 431 95.123 430C95.123 429.2 97.123 429 98.123 429C97.7897 427.333 97.723 423.5 100.123 421.5C102.523 419.5 109.123 419.333 112.123 419.5C112.29 420.167 112.923 423 114.123 429C115.323 435 112.623 437.833 111.123 438.5L111.623 443C110.456 444.5 107.723 448 106.123 448Z" fill="#F2994A"/>
<path d="M202.123 632.5L201.623 626.5C198.092 627.446 195.994 627.613 192.123 627.5L194.123 634L202.123 632.5Z" fill="#98C3E8"/>
<path d="M159.623 599.5L165.623 597.5C162.945 594.423 162.044 592.668 161.123 589.5L155.123 592L159.623 599.5Z" fill="#98C3E8"/>
<rect opacity="0.8" x="186.623" y="352" width="266.284" height="189.301" rx="5" fill="url(#paint6_linear)"/>
<path d="M186.623 357C186.623 354.239 188.862 352 191.623 352H263.606V541.301H191.623C188.862 541.301 186.623 539.063 186.623 536.301V357Z" fill="white"/>
<circle cx="198.623" cy="364" r="4" fill="#FA9595"/>
<circle cx="211.623" cy="364" r="4" fill="#FDF397"/>
<circle cx="223.623" cy="364" r="4" fill="#C1FEBB"/>
<path opacity="0.4" fill-rule="evenodd" clip-rule="evenodd" d="M195.623 458H253.623V465H195.623V458ZM195.623 472H253.623V479H195.623V472ZM234.623 488H195.623V495H234.623V488Z" fill="#5A98D0"/>
<path opacity="0.1" fill-rule="evenodd" clip-rule="evenodd" d="M372.623 377H430.623V384H372.623V377ZM372.623 391H430.623V398H372.623V391ZM411.623 407H372.623V414H411.623V407Z" fill="black"/>
<g filter="url(#filter6_d)">
<rect x="178.623" y="378" width="81" height="50" rx="5" fill="#28378F"/>
</g>
<path d="M197.383 408C197.276 408 197.186 407.968 197.111 407.904C197.047 407.829 197.015 407.739 197.015 407.632V397.184C197.015 397.067 197.047 396.976 197.111 396.912C197.186 396.837 197.276 396.8 197.383 396.8H201.015C202.626 396.8 203.788 397.163 204.503 397.888C205.218 398.603 205.591 399.685 205.623 401.136C205.634 401.445 205.639 401.861 205.639 402.384C205.639 402.907 205.634 403.328 205.623 403.648C205.591 404.661 205.42 405.488 205.111 406.128C204.812 406.757 204.338 407.227 203.687 407.536C203.036 407.845 202.172 408 201.095 408H197.383ZM201.015 406.64C201.751 406.64 202.332 406.539 202.759 406.336C203.196 406.133 203.511 405.813 203.703 405.376C203.906 404.928 204.018 404.331 204.039 403.584C204.06 402.944 204.071 402.544 204.071 402.384C204.071 402.213 204.06 401.819 204.039 401.2C204.018 400.144 203.767 399.376 203.287 398.896C202.807 398.405 202.023 398.16 200.935 398.16H198.583V406.64H201.015ZM207.907 408C207.821 408 207.747 407.968 207.683 407.904C207.619 407.84 207.587 407.765 207.587 407.68C207.587 407.595 207.592 407.536 207.603 407.504L211.571 397.152C211.656 396.917 211.827 396.8 212.083 396.8H213.171C213.427 396.8 213.597 396.917 213.683 397.152L217.635 407.504L217.667 407.68C217.667 407.765 217.635 407.84 217.571 407.904C217.507 407.968 217.432 408 217.347 408H216.531C216.413 408 216.323 407.973 216.259 407.92C216.195 407.856 216.152 407.792 216.131 407.728L215.251 405.456H210.003L209.123 407.728C209.101 407.792 209.053 407.856 208.979 407.92C208.915 407.973 208.829 408 208.723 408H207.907ZM214.787 404.08L212.627 398.4L210.467 404.08H214.787ZM220.546 408C220.439 408 220.348 407.968 220.274 407.904C220.21 407.829 220.178 407.739 220.178 407.632V397.184C220.178 397.067 220.21 396.976 220.274 396.912C220.348 396.837 220.439 396.8 220.546 396.8H224.61C225.815 396.8 226.764 397.093 227.458 397.68C228.151 398.267 228.498 399.115 228.498 400.224C228.498 401.333 228.151 402.181 227.458 402.768C226.775 403.344 225.826 403.632 224.61 403.632H221.778V407.632C221.778 407.739 221.74 407.829 221.666 407.904C221.591 407.968 221.5 408 221.394 408H220.546ZM224.53 402.288C225.308 402.288 225.895 402.112 226.29 401.76C226.695 401.408 226.898 400.896 226.898 400.224C226.898 399.552 226.7 399.04 226.306 398.688C225.911 398.325 225.319 398.144 224.53 398.144H221.762V402.288H224.53ZM234.843 408.16C233.958 408.16 233.19 408.021 232.539 407.744C231.899 407.467 231.409 407.104 231.067 406.656C230.726 406.197 230.545 405.707 230.523 405.184C230.523 405.099 230.555 405.024 230.619 404.96C230.694 404.885 230.779 404.848 230.875 404.848H231.691C231.894 404.848 232.033 404.955 232.107 405.168C232.203 405.616 232.475 406 232.923 406.32C233.382 406.64 234.022 406.8 234.843 406.8C235.729 406.8 236.395 406.645 236.843 406.336C237.291 406.016 237.515 405.573 237.515 405.008C237.515 404.645 237.403 404.352 237.179 404.128C236.966 403.904 236.646 403.707 236.219 403.536C235.793 403.365 235.153 403.152 234.299 402.896C233.467 402.661 232.806 402.411 232.315 402.144C231.825 401.877 231.457 401.547 231.211 401.152C230.966 400.757 230.843 400.261 230.843 399.664C230.843 399.088 230.998 398.571 231.307 398.112C231.627 397.653 232.081 397.296 232.667 397.04C233.254 396.773 233.953 396.64 234.763 396.64C235.595 396.64 236.31 396.789 236.907 397.088C237.505 397.376 237.958 397.744 238.267 398.192C238.577 398.64 238.742 399.088 238.763 399.536C238.763 399.621 238.731 399.696 238.667 399.76C238.614 399.824 238.534 399.856 238.427 399.856H237.579C237.355 399.856 237.217 399.755 237.163 399.552C237.099 399.104 236.849 398.736 236.411 398.448C235.974 398.149 235.425 398 234.763 398C234.038 398 233.467 398.139 233.051 398.416C232.635 398.693 232.427 399.104 232.427 399.648C232.427 400.011 232.523 400.309 232.715 400.544C232.918 400.779 233.222 400.987 233.627 401.168C234.033 401.339 234.625 401.536 235.403 401.76C236.31 402.005 237.025 402.261 237.547 402.528C238.07 402.784 238.459 403.109 238.715 403.504C238.971 403.888 239.099 404.379 239.099 404.976C239.099 405.968 238.715 406.747 237.947 407.312C237.179 407.877 236.145 408.16 234.843 408.16Z" fill="white"/>
<rect x="280.623" y="370" width="79" height="77" rx="5" fill="#25A9E1" fill-opacity="0.5"/>
<g clip-path="url(#clip0)">
<path d="M311.623 395V423L333.623 409L311.623 395Z" fill="white"/>
</g>
<g filter="url(#filter7_d)">
<rect x="280.623" y="460" width="154" height="63" rx="5" fill="#25A9E1" fill-opacity="0.75"/>
</g>
<path d="M294.123 505C303.623 498.5 307.623 490 325.623 490C343.623 490 345.203 500 356.123 500C369.123 500 381.623 480.5 395.623 480.5C409.623 480.5 413.123 490.5 420.623 491" stroke="black" stroke-opacity="0.1" stroke-width="2" stroke-linecap="round" stroke-linejoin="round"/>
<path d="M293.623 505.5C303.123 499 305.623 480 323.623 480C341.623 480 345.703 496.5 356.623 496.5C369.623 496.5 381.123 469.5 395.123 469.5C409.123 469.5 413.623 490.5 421.123 491" stroke="white" stroke-width="2" stroke-linecap="round" stroke-linejoin="round"/>
</g>
<defs>
<filter id="filter0_d" x="0.883789" y="10.7127" width="687.162" height="710.357" filterUnits="userSpaceOnUse" color-interpolation-filters="sRGB">
<feFlood flood-opacity="0" result="BackgroundImageFix"/>
<feColorMatrix in="SourceAlpha" type="matrix" values="0 0 0 0 0 0 0 0 0 0 0 0 0 0 0 0 0 0 127 0" result="hardAlpha"/>
<feOffset dy="4"/>
<feGaussianBlur stdDeviation="2"/>
<feComposite in2="hardAlpha" operator="out"/>
<feColorMatrix type="matrix" values="0 0 0 0 0 0 0 0 0 0 0 0 0 0 0 0 0 0 0.25 0"/>
<feBlend mode="normal" in2="BackgroundImageFix" result="effect1_dropShadow"/>
<feBlend mode="normal" in="SourceGraphic" in2="effect1_dropShadow" result="shape"/>
</filter>
<filter id="filter1_d" x="402.623" y="174" width="188" height="188" filterUnits="userSpaceOnUse" color-interpolation-filters="sRGB">
<feFlood flood-opacity="0" result="BackgroundImageFix"/>
<feColorMatrix in="SourceAlpha" type="matrix" values="0 0 0 0 0 0 0 0 0 0 0 0 0 0 0 0 0 0 127 0" result="hardAlpha"/>
<feOffset/>
<feGaussianBlur stdDeviation="25"/>
<feColorMatrix type="matrix" values="0 0 0 0 0.0627451 0 0 0 0 0.439216 0 0 0 0 0.694118 0 0 0 0.25 0"/>
<feBlend mode="normal" in2="BackgroundImageFix" result="effect1_dropShadow"/>
<feBlend mode="normal" in="SourceGraphic" in2="effect1_dropShadow" result="shape"/>
</filter>
<filter id="filter2_d" x="395.762" y="0.712738" width="71.1381" height="60.1162" filterUnits="userSpaceOnUse" color-interpolation-filters="sRGB">
<feFlood flood-opacity="0" result="BackgroundImageFix"/>
<feColorMatrix in="SourceAlpha" type="matrix" values="0 0 0 0 0 0 0 0 0 0 0 0 0 0 0 0 0 0 127 0" result="hardAlpha"/>
<feOffset dx="5" dy="5"/>
<feGaussianBlur stdDeviation="7.5"/>
<feColorMatrix type="matrix" values="0 0 0 0 0 0 0 0 0 0 0 0 0 0 0 0 0 0 0.15 0"/>
<feBlend mode="normal" in2="BackgroundImageFix" result="effect1_dropShadow"/>
<feBlend mode="normal" in="SourceGraphic" in2="effect1_dropShadow" result="shape"/>
</filter>
<filter id="filter3_d" x="569.623" y="76.6368" width="71.1382" height="60.1162" filterUnits="userSpaceOnUse" color-interpolation-filters="sRGB">
<feFlood flood-opacity="0" result="BackgroundImageFix"/>
<feColorMatrix in="SourceAlpha" type="matrix" values="0 0 0 0 0 0 0 0 0 0 0 0 0 0 0 0 0 0 127 0" result="hardAlpha"/>
<feOffset dx="5" dy="5"/>
<feGaussianBlur stdDeviation="7.5"/>
<feColorMatrix type="matrix" values="0 0 0 0 0 0 0 0 0 0 0 0 0 0 0 0 0 0 0.15 0"/>
<feBlend mode="normal" in2="BackgroundImageFix" result="effect1_dropShadow"/>
<feBlend mode="normal" in="SourceGraphic" in2="effect1_dropShadow" result="shape"/>
</filter>
<filter id="filter4_d" x="349.623" y="76.6368" width="71.1381" height="60.1162" filterUnits="userSpaceOnUse" color-interpolation-filters="sRGB">
<feFlood flood-opacity="0" result="BackgroundImageFix"/>
<feColorMatrix in="SourceAlpha" type="matrix" values="0 0 0 0 0 0 0 0 0 0 0 0 0 0 0 0 0 0 127 0" result="hardAlpha"/>
<feOffset dx="5" dy="5"/>
<feGaussianBlur stdDeviation="7.5"/>
<feColorMatrix type="matrix" values="0 0 0 0 0 0 0 0 0 0 0 0 0 0 0 0 0 0 0.15 0"/>
<feBlend mode="normal" in2="BackgroundImageFix" result="effect1_dropShadow"/>
<feBlend mode="normal" in="SourceGraphic" in2="effect1_dropShadow" result="shape"/>
</filter>
<filter id="filter5_d" x="523.623" y="0.712738" width="71.1381" height="60.1162" filterUnits="userSpaceOnUse" color-interpolation-filters="sRGB">
<feFlood flood-opacity="0" result="BackgroundImageFix"/>
<feColorMatrix in="SourceAlpha" type="matrix" values="0 0 0 0 0 0 0 0 0 0 0 0 0 0 0 0 0 0 127 0" result="hardAlpha"/>
<feOffset dx="5" dy="5"/>
<feGaussianBlur stdDeviation="7.5"/>
<feColorMatrix type="matrix" values="0 0 0 0 0 0 0 0 0 0 0 0 0 0 0 0 0 0 0.15 0"/>
<feBlend mode="normal" in2="BackgroundImageFix" result="effect1_dropShadow"/>
<feBlend mode="normal" in="SourceGraphic" in2="effect1_dropShadow" result="shape"/>
</filter>
<filter id="filter6_d" x="173.623" y="373" width="101" height="70" filterUnits="userSpaceOnUse" color-interpolation-filters="sRGB">
<feFlood flood-opacity="0" result="BackgroundImageFix"/>
<feColorMatrix in="SourceAlpha" type="matrix" values="0 0 0 0 0 0 0 0 0 0 0 0 0 0 0 0 0 0 127 0" result="hardAlpha"/>
<feOffset dx="5" dy="5"/>
<feGaussianBlur stdDeviation="5"/>
<feColorMatrix type="matrix" values="0 0 0 0 0.0627451 0 0 0 0 0.439216 0 0 0 0 0.694118 0 0 0 0.2 0"/>
<feBlend mode="normal" in2="BackgroundImageFix" result="effect1_dropShadow"/>
<feBlend mode="normal" in="SourceGraphic" in2="effect1_dropShadow" result="shape"/>
</filter>
<filter id="filter7_d" x="270.623" y="454" width="174" height="83" filterUnits="userSpaceOnUse" color-interpolation-filters="sRGB">
<feFlood flood-opacity="0" result="BackgroundImageFix"/>
<feColorMatrix in="SourceAlpha" type="matrix" values="0 0 0 0 0 0 0 0 0 0 0 0 0 0 0 0 0 0 127 0" result="hardAlpha"/>
<feOffset dy="4"/>
<feGaussianBlur stdDeviation="5"/>
<feColorMatrix type="matrix" values="0 0 0 0 0.435294 0 0 0 0 0.811765 0 0 0 0 0.592157 0 0 0 0.2 0"/>
<feBlend mode="normal" in2="BackgroundImageFix" result="effect1_dropShadow"/>
<feBlend mode="normal" in="SourceGraphic" in2="effect1_dropShadow" result="shape"/>
</filter>
<linearGradient id="paint0_linear" x1="375.239" y1="27.6813" x2="465.738" y2="259.435" gradientUnits="userSpaceOnUse">
<stop stop-color="#28378F"/>
<stop offset="1" stop-color="#25A9E1"/>
</linearGradient>
<linearGradient id="paint1_linear" x1="559.358" y1="314.576" x2="507.587" y2="348.395" gradientUnits="userSpaceOnUse">
<stop stop-color="#FFF8E1"/>
<stop offset="1" stop-color="#FFCC80"/>
</linearGradient>
<linearGradient id="paint2_linear" x1="585.601" y1="331.241" x2="585.601" y2="408.5" gradientUnits="userSpaceOnUse">
<stop stop-color="#AF6CED"/>
<stop offset="1" stop-color="#5E199D"/>
</linearGradient>
<linearGradient id="paint3_linear" x1="633.351" y1="391.5" x2="633.351" y2="501.5" gradientUnits="userSpaceOnUse">
<stop stop-color="#1C1857"/>
<stop offset="1" stop-color="#25A9E1"/>
</linearGradient>
<linearGradient id="paint4_linear" x1="575.339" y1="321.146" x2="557.218" y2="328.755" gradientUnits="userSpaceOnUse">
<stop stop-color="#FFF8E1"/>
<stop offset="1" stop-color="#FFCC80"/>
</linearGradient>
<linearGradient id="paint5_linear" x1="587.899" y1="381.08" x2="576.219" y2="402.359" gradientUnits="userSpaceOnUse">
<stop stop-color="#FFF8E1"/>
<stop offset="1" stop-color="#FFCC80"/>
</linearGradient>
<linearGradient id="paint6_linear" x1="193.016" y1="421.155" x2="498.516" y2="454.655" gradientUnits="userSpaceOnUse">
<stop offset="0.127122" stop-color="white"/>
<stop offset="0.972261" stop-color="white" stop-opacity="0.8"/>
</linearGradient>
<clipPath id="clip0">
<rect width="48" height="48" fill="white" transform="translate(295.623 385)"/>
</clipPath>
</defs>
</svg>
